<svg xmlns="http://www.w3.org/2000/svg" viewBox="0 0 980.79 980.79"><defs><style>.cls-2{fill:#99f2fc}</style></defs><circle cx="490.39" cy="490.39" r="490.39" fill="#132333" id="Layer_3" data-name="Layer 3"/><g id="Layer_2" data-name="Layer 2"><path class="cls-2" d="M478.44 957.23c-2.78-.29-5.56-.69-8.32-1.21-26.32-5-49.94-21.36-65.33-43.28-14.09-20.06-21.48-46.36-13.48-69.54 1.12-3.22 4.13-10.16-2-8.54-3.95 1.05-6.4 5.72-7.89 9.13a66.64 66.64 0 003.2 58.71c-9.25-16.18-14.28-34-13.62-52.72.3-8.39 1.12-18.18 5.19-25.56 4.89-8.85 11.16-16.49 18-23.91 14-15.23 30.41-28.62 41.66-46.21 1.11-1.74 2.17-3.51 3.16-5.32 10.86-19.82 10.45-39.47 8.93-61.22-.07-.94.31-2.29 1.23-2.06a1.45 1.45 0 01.7.53c12.28 13.87 19.67 30.73 18.64 49.55-.73 13.19-5.44 25.92-11.86 37.46-8.05 14.48-18.94 27-27.22 41.22-8 13.78-14 28.72-15.38 44.71-1.79 20.79 5.08 38.57 21.11 54.5 7.68 7.68 17.16 13.93 32.47 21.51 21.7 10.74 46.79 13.24 70.4 8.27 2.41-.5 12.61-2.6 10.3 2-2.23 4.38-13 6.19-17.21 7.18-17.24 3.98-35.12 6.57-52.68 4.8zm0 .44" transform="translate(-9.68 -14.53)"/><path class="cls-2" d="M701.51 899.34c4 6.58-2 6.1-7 4.69a198.43 198.43 0 00-21.06-5.18c-21.66-3.59-43.81-.36-65.43 3.43s-43.41 8.2-65.32 6.94l-.76-.05c-21.67-1.39-43.84-9.07-58-25.49-10.91-12.63-16.2-29.43-17-46.1s2.51-33.28 7.24-49.28a287.31 287.31 0 0128.13-64.6 413.72 413.72 0 0019.6-38.23c6.32 7.81 3.09 19.25.13 28.85-5.79 18.85-9.34 38.72-7 58.3s11.16 38.89 26.6 51.15c17.7 14.05 41.36 17.27 63.7 20.6 16.54 2.47 33 5.68 47.91 13.46a200.24 200.24 0 0148.26 41.51zM526.05 918" transform="translate(-9.68 -14.53)"/><path class="cls-2" d="M699.54 877.14c-.59.25-2-.78-2.61-1.45-1.09-1.25-1.62-3.05-2.35-4.52a61.91 61.91 0 00-6.3-9.93 75.4 75.4 0 00-16.8-15.73C660.55 837.93 648 832.9 635.31 829c-23.52-7.18-49.42-11.33-67.39-28.12s-24.06-43.14-24.56-67.88a201.83 201.83 0 0116.94-84.9c1.44-3.28 3.24-6.8 6.54-8.2-8.79 28.33-5.6 61.23 12.62 84.64 17.95 23.07 47.08 34 70.13 52a106.21 106.21 0 0127.12 30.58c6 10.45 8.62 22.27 11.48 33.86 2.91 11.83 7.3 23.17 11.38 34.64.34.94.26 1.38-.03 1.52zM277.65 706.73a67.45 67.45 0 01-14.89-3.42c-9.65-3.28-18.79-8-28.52-11-6.71-2.08-13.82-3.41-19.68-7.29a26.17 26.17 0 01-9.38-11.13c-1.86-4.23-2.64-8.87-5.14-12.82-2.34-3.69-6-6.45-9.18-9.52-9.81-9.6-17.54-20.44-24.81-32-4.78-7.61-9.31-15.42-12.48-23.82-9.29-24.63-6.45-53.82 10.56-74.4 9.8-11.86 22.48-20.92 34.61-30.37 14-10.94 27.62-22.64 39.28-36.14 12.14-14.05 20.92-30.53 29-47.2 10.83-22.46 20.48-45.75 35.28-65.81a155.18 155.18 0 0169.38-52.39q6.76-2.56 13.76-4.47c5.91-1.61 6.08-3.07 7.49-9 2.25-9 14.23-42.61 20.54-57.62 13.06-31.09 28.89-57.32 49.63-82.21 6.81-8.15 21.15-24.43 25.15-28.63 5.84-6 21-19.21 35.86-31.09 5.07-4.1 14.19-10.4 14.49-10.15.1.11-3.43 3.54-7.83 7.63a350.57 350.57 0 00-28.53 29.2c-21.67 24.69-40.21 49.17-51.53 68.13-4 6.71-13.37 23.76-15.47 28.32-.67 1.49-2.56 5.43-4.15 8.81-4 8.45-6.2 14.14-10.15 26.13a168.25 168.25 0 00-7 26.58l-1.64 8.09 1.74 1.44c2.41 2.05 6.76 3.63 10.66 3.94 5.27.41 15.16-2.1 18.69-4.71 1.49-1.08 1.59-1.49 2.46-7.48a302.24 302.24 0 0111.88-49.79c5.54-16.85 7-20.43 12.55-31.86 10.5-21.36 20.59-35.7 36.11-51.27a67.39 67.39 0 017.89-7.12l1.8-.92-1 1.48c-.51.82-1.69 2.41-2.56 3.54-2.35 2.92-11.78 17.41-15.88 24.33-8 13.62-16.59 32.68-22.23 49.63s-7.73 25.46-9.58 39.49c-1.48 11.48-1.48 13.93-.2 16.75l1 2.21h3a108.92 108.92 0 0116.13 2c2.92.62 5.07 1.59 9.27 4.05 2.56 1.49 3.79 1.95 4.4 1.59s2.31-3.74 4.05-7.79c3.84-8.7 18.29-37.64 22.38-44.81 8.76-15.37 31.1-45.95 44.42-60.86 6.91-7.73 17.61-18.54 28-28.27a436.39 436.39 0 0141.77-33.41c3.69-2.56 8-5.63 9.73-6.86 3.54-2.57 7.27-4.56 8-4.31.57.21-1.33 2-6.66 6.2-6.81 5.53-31.91 31.5-47.27 49-36 41.08-59.06 72-73.87 99-5.31 9.77-10.51 19.67-15.4 29.67-4.68 9.61-9.32 19.53-9.78 30.39a25 25 0 00.67 7.52A21.11 21.11 0 00511 312a34.34 34.34 0 0010.53 6.1c10.82 4.14 22.71 4.42 34.29 3.89a21.39 21.39 0 006.9-1.1 9.19 9.19 0 005.38-6l28-77.85 3.78-10.51c.88-2.42 1.75-6.75 4-8.39a2.15 2.15 0 011.9-.23c5.54 1.68 3.59 11.5 3.07 15.57-.91 7.1-2.8 14-4.63 21q-7.77 29.49-14 59.36c-1 4.95.16 6.86 2.18 11.06 4 8.25-5.71 17.67-12.19 21.16s-13.65 4.69-20.85 5.33c-22.18 2-45.77-2-63.35-15.67-4.25-3.31-8.19-7.29-10.17-12.3-2.33-5.9-1.61-12.37-.2-18.4 1.1-4.68 3.67-9.73-1.42-13-4.51-2.89-9.79-4.28-15-5.5a11.71 11.71 0 00-4.94-.41c-2.9.59-4.66 3.07-6.91 4.74a65.21 65.21 0 01-8.61 5.07 100 100 0 01-22.32 8.61 84 84 0 01-17.42 2.66 201.29 201.29 0 00-24.24 2.72c-7.54 1.4-12.76 4.44-19.17 8.67-13.87 9.14-27.1 19.51-37.92 32.19-27.69 32.53-37.4 77.14-63.38 111.1-11.14 14.56-25 26.73-38.95 38.49-14.71 12.36-30.35 24.06-42 39.58-5.34 7.13-9.57 15.27-11 24.06-1.19 7.43-.34 15 1.18 22.43.63 3.08 1.48 6.32 3.78 8.46 3.62 3.38 7.63.84 11.19-1 5.8-3.05 11.45-6.41 17.16-9.61l8.59-4.82c1.61-.9 5.29-4.07 7.18-4.07a23.13 23.13 0 002.87-1.59c1.18-.75 1.66-1.47 2.89-1.15a2 2 0 01-.16 1.19c-4.09 8.79-7.81 19.53-14.41 26.74-4.26 4.64-10 7.42-15.54 10.15-2.8 1.38-13.44 5-13.13 8.87.13 1.7 3.19 4.84 4.13 6.24 4.72 7.07 15.68 20.79 17.88 22.38 4 2.9 10.57 4.21 15.25 5.67a104.24 104.24 0 0062-.11c4-1.28 7.74-3.53 11.79-4.81 4.71-1.49 11.14-1.31 4.46 3.55-11.44 8.32-25.78 11.93-39.92 12.44s-28.21-1.87-42.1-4.57c2.88 6 5.83 12.12 10.36 17s10.17 8.13 15.93 11.19c8.84 4.68 18.52 8.92 28.48 7.93a25.89 25.89 0 01-6.31-8.4 55.43 55.43 0 0022.43 5.81l-4.48-7.74c10.68 5.43 22.48 8.17 34.16 10.85a48.29 48.29 0 01-17.12.45l8.92 5.73A69.85 69.85 0 01283 701a59.51 59.51 0 009.78 4.55 39.09 39.09 0 01-15.13 1.18zm189.55-36.42a252.1 252.1 0 01-36-4.35c-15.72-2.82-22.54-3.59-35.14-3.89-15.88-.41-25 .56-32.57 3.48-2.82 1-5.79 2.05-6.66 2.25-1.49.31-1.49.26.87-1.95 5.32-5 19.62-10.65 32.63-12.9 9.42-1.59 36.36-3 51-2.72 25.36.57 43.85-1.43 57.83-6.2 6.86-2.3 17.67-8.7 23.51-13.83 5.43-4.81 15.42-17.51 17.52-22.33a201 201 0 006.76-19.21c1-4.09 1.54-22.18.82-27.4-.51-4-.41-4.87.87-4.87 1.59.06 4.66 6.15 7.38 14.7 3.22 10.1 3.69 12.81 3.69 22.7-.11 23.35-5.9 39.69-19.21 53.88-10.86 11.63-25 18.44-44.92 21.62-4.67.77-21.83 1.38-28.33 1zm210.89-4.37c-9.42-.84-18.75-3.07-26.73-8-13.79-8.59-21.62-24.08-27.29-39.31a200.23 200.23 0 01-9.48-33.71c-1.84-10.08-4.5-23.13-1.87-33.26a9.64 9.64 0 011.84-3.74c1-1.07 1.54-1.28 2.87-1 4.16.79 6.66 6.5 8.52 9.73 2.85 4.95 5.46 10 8.12 15 5.39 10.22 10.95 20.48 18.6 29.22 9.46 10.81 21.75 18.85 34.7 25.06s26.64 10.73 40.22 15.42c3.16 1.09 6.43 2.26 8.79 4.63 7.09 7.14-2.81 12.61-9.14 14.56A131.36 131.36 0 01684 666.3c-2-.07-4-.18-5.91-.36zm0 .07" transform="translate(-9.68 -14.53)"/><path class="cls-2" d="M804.23 649.11c-45.23-.84-89.87-17.11-125.82-44.59-11.44-8.75-22.19-18.79-29.55-31.18-2.19-3.68-4.1-7.74-4.07-12 0-1.06 10.38 7.72 11.27 8.57a163.6 163.6 0 0014.54 12.39c13.1 9.91 27.56 17.26 42.65 23.63 16.15 6.82 33.49 12.39 51.23 11.65 4.38-.19 9.19-1 12-4.42 2.22-2.7 2.66-6.53 2-10-2.81-14-15.81-22.41-26.95-29.49-22.33-14.19-28.27-18.55-44.36-32.78a165.67 165.67 0 01-29.19-33.2l-10.6-16.09c-3.69-5.64-7.89-12.29-9.38-14.86s-3.63-6.14-4.76-8.09c-5.64-9.12-10.61-21.36-26.23-64.38-3.62-10-8-19.77-14.61-28.13-6.79-8.54-16.72-13-24-20.91 2.72-.7 4.66-3 6.88-4.75 8-6.15 20.54 6.07 25.84 11.29 7.75 7.65 13.75 16.93 18.69 26.59 7.39 14.45 12.64 29.91 19.86 44.45 14.45 29.06 37.62 53.95 63.52 73.28 17 12.7 35.62 23 53.75 34a340.38 340.38 0 0151.3 37.78c13.48 12.15 28.45 30.33 21.46 49.64-6.49 17.94-25 21.61-42 21.59zM603 611.74a13.37 13.37 0 01-3-1.78c-18-13-28.77-34.19-36.46-54.47a216.07 216.07 0 01-14-73.68 212 212 0 013.46-41.24c1-5.28 2.16-10.58 4.62-15.34.76-1.49 1.77-3 3.34-3.57 7.3-2.57 7.36 16.53 7.69 19.83q1.5 14.76 3.83 29.41 3 19.05 7.49 37.85 1.11 4.69 2.31 9.36c.42 1.63 1.3 9 2.69 9.75 2.94 1.64 6.57-8 7.92-10 2.68-4 5.79-7.7 10-10.15a7.84 7.84 0 014.66-1.3 3.6 3.6 0 013.31 3.08 5.4 5.4 0 01-.35 1.89c-1.51 4.84-3 9.65-4.2 14.56a153.84 153.84 0 001.42 77.25c.83 3 2.47 8.92-2.63 9a5.8 5.8 0 01-2.1-.45zm-205.87-97.35c-11.17-.77-25.87-3.63-31.09-6.09-3.64-1.69-7.89-5.59-9.53-8.81-2.41-4.77-1.79-11.68 1.79-20.08a61.38 61.38 0 0117.88-24.08 65.7 65.7 0 0115-9.73c6.14-3.07 9.32-3.94 14.44-3.94s6.81.56 16.29 5.84c12.55 7 21.41 14.7 27.15 23.56 3.63 5.68 4.45 7.58 5.89 13.78 1.48 6.5 1.33 14.29-.41 17.67-1.23 2.31-4.15 4.76-7.58 6.3-2.51 1.13-11.94 3.64-18 4.76-5.17 1-22.94 1.44-31.75.82zm-25.92-25.67c1.57-2 3.05-4.06 4.74-6 2.64-3 5.47-5.77 8.37-8.48s10.24-7.35 9-12.24a5.42 5.42 0 00-3.4-3.4c-3.71-1.5-8.09-.36-11.35 2s-5.59 5.72-7.74 9.1c-2.94 4.63-5.69 9.5-6.82 14.86a10.66 10.66 0 00-.24 3.77 4.91 4.91 0 001.8 3.24 2.64 2.64 0 002.17.53 4 4 0 001.89-1.44c.53-.61 1.06-1.27 1.58-1.94zM611.7 251.26a21.66 21.66 0 013-5c1.29-1.34 5-8.28 5.92-11.19.54-1.57 1.78-5.09 2.75-7.85 2.1-5.67 2.37-9.85 1-14.52-2.21-7.57-12.7-16.28-32.73-27.22-3.18-1.77-3.07-1.81 2.48-.91 3.92.67 5.59 1.33 15.12 6.09 8.29 4.1 17 7 20.84 7 4.68 0 8.51-2.47 11.09-7.14.65-1.19 2.8-5.9 4.84-10.47l3.67-8.33.16 3.24c.21 4.42-1.56 12.75-4.2 19.56-2.53 6.47-3.13 10-2.16 13.13.54 1.76 1.83 3.19 7.81 8.57 11.2 10 18.63 17.71 13.41 13.9a59.41 59.41 0 00-11.63-6.71c-6.19-2.52-13.52-3.29-16.69-1.67-1.4.72-3.39 3.1-5.17 6.29-2.53 4.42-12.55 17.61-15.24 20.08s-4.25 3.62-4.25 3.14zm0 0" transform="translate(-9.68 -14.53)"/><path class="cls-2" d="M620.18 186.05c-5.24-4.46-.44-14.26 1.45-19.39 6.51-17.65 15.67-34.17 24.8-50.61.91-1.64 1.82-3.28 2.85-4.85.85-1.3 1.77-2.28 1.79-.32 0 1.71-1.36 4.1-2 5.7q-11.5 31-23 62.11c-1 2.69-1.15 6-3.58 7.88a1.14 1.14 0 01-1.6.06 8.21 8.21 0 01-.71-.58zm0 .19" transform="translate(-9.68 -14.53)"/></g></svg>